<?xml version="1.0" encoding="UTF-8" standalone="no"?><!DOCTYPE svg PUBLIC "-//W3C//DTD SVG 1.1//EN" "http://www.w3.org/Graphics/SVG/1.1/DTD/svg11.dtd"><svg width="100%" height="100%" viewBox="0 0 700 700" version="1.1" xmlns="http://www.w3.org/2000/svg" xmlns:xlink="http://www.w3.org/1999/xlink" xml:space="preserve" xmlns:serif="http://www.serif.com/" style="fill-rule:evenodd;clip-rule:evenodd;stroke-linecap:round;stroke-linejoin:round;stroke-miterlimit:1.5;"><path d="M99.023,168.19l-4.738,3.162c-38.875,37.25 -39.75,70.625 -39.75,70.625c5.875,25.875 -8.25,37.5 -8.25,37.5l-36.25,32.409c-6.375,3.284 -2.875,9.904 -2.875,9.904l15.25,16.75c1.75,2.375 0.125,8.75 0.125,8.75l-9.875,11.437c-8.125,7.875 -3.625,12.5 -3.625,12.5l7.625,10c-13.125,5.25 -7.812,17.688 -7.812,17.688c10,4.5 10,15.75 10,15.75c-27,33.5 12.5,46 12.5,46l75.25,18.75c23.25,7 31.25,21.25 31.25,21.25l44.25,68.75l189.75,0c-24.532,-26.478 -49.064,-52.957 -73.25,-79.75c-3.506,-3.884 -6.936,-7.883 -9.805,-12.258c-1.532,-2.337 -2.583,-5.008 -3.289,-7.711c-0.442,-1.692 0.969,-5.156 0.969,-5.156c214.5,104.5 384.21,-174.688 384.21,-174.688l-30.085,-44.875c-81.5,-113 -262.375,-175.787 -262.375,-175.787c-71.6,-20.4 -143.4,-20.2 -143.4,-20.2c-201.8,0.8 -135.8,119.2 -135.8,119.2" style="stroke:#fff;stroke-width:1px;"/><path d="M108.775,131.667c0,0 30.418,-183.705 481.745,56.044c0,0 -415.172,-217.56 -466.846,-60.024l-14.899,3.98Z" style="fill:url(#_Linear1);"/><path d="M137.723,144.852c0,0 29.7,-167 445.5,55c0,0 -382.516,-201.5 -431.675,-58.5l-13.825,3.5Z" style="fill:url(#_Linear2);"/><path d="M189.223,178.852c0,0 139.955,-122.5 497.25,111c0,0 -333.288,-213 -476.308,-111.5l-20.942,0.5Z" style="fill:url(#_Linear3);"/><path d="M302.795,410.246c0,0 108.168,110.759 361.928,-120.394c0,0 -236.907,211.095 -346.473,120.192l-15.455,0.202Z" style="fill:url(#_Linear4);"/><path d="M319.666,369.57c0,0 100.706,70.187 343.902,-81.859c0,0 -226.978,138.912 -329.287,81.55l-14.615,0.309Z" style="fill:url(#_Linear5);"/><path d="M162.473,150.335c0,0 136.718,-122.5 485.75,111c0,0 -325.58,-213 -465.292,-111.5l-20.458,0.5Z" style="fill:url(#_Linear6);"/><path d="M210.213,199.982c0,0 133.457,-59.543 460.47,81.146c0,0 -305.162,-128.658 -440.947,-80.502l-19.523,-0.644Z" style="fill:url(#_Linear7);"/><path d="M296.223,441.352c0,0 127.5,128.7 368.5,-132.15c0,0 -235,247.65 -356.5,126.65l-12,5.5Z" style="fill:url(#_Linear8);"/><path d="M264.723,234.53c0,0 71.571,-34.626 397.143,46.598c0,0 -306.078,-73.026 -394.768,-41.026l-2.375,-5.572Z" style="fill:url(#_Linear9);"/><path d="M330.819,319.917c0,0 60.927,36.037 345.064,-35.848c0,0 -267.027,64.287 -342.845,30.405l-2.219,5.443Z" style="fill:url(#_Linear10);"/><path d="M343.598,272.623c0,0 13,-27.396 316,13.229c0,0 -345,-38.625 -311.5,0l-4.5,-13.229Z" style="fill:url(#_Linear11);"/><defs><linearGradient id="_Linear1" x1="0" y1="0" x2="1" y2="0" gradientUnits="userSpaceOnUse" gradientTransform="matrix(481.197,-4.36178,1.14749,126.593,108.749,128.776)"><stop offset="0" style="stop-color:#0b0707;stop-opacity:0.684286"/><stop offset="0.16" style="stop-color:#06557b;stop-opacity:0.684286"/><stop offset="0.34" style="stop-color:#0296dc;stop-opacity:0.684286"/><stop offset="1" style="stop-color:#00aeff;stop-opacity:0.684286"/></linearGradient><linearGradient id="_Linear2" x1="0" y1="0" x2="1" y2="0" gradientUnits="userSpaceOnUse" gradientTransform="matrix(445.5,0,0,115.264,137.723,142.22)"><stop offset="0" style="stop-color:#0b0707;stop-opacity:0.684286"/><stop offset="0.18" style="stop-color:#065073;stop-opacity:0.684286"/><stop offset="0.38" style="stop-color:#0293d6;stop-opacity:0.684286"/><stop offset="1" style="stop-color:#00aeff;stop-opacity:0.684286"/></linearGradient><linearGradient id="_Linear3" x1="0" y1="0" x2="1" y2="0" gradientUnits="userSpaceOnUse" gradientTransform="matrix(497.25,0,0,143.115,189.223,218.295)"><stop offset="0" style="stop-color:#000;stop-opacity:0.684286"/><stop offset="0.48" style="stop-color:#0084c4;stop-opacity:0.684286"/><stop offset="1" style="stop-color:#00abff;stop-opacity:0.684286"/></linearGradient><linearGradient id="_Linear4" x1="0" y1="0" x2="1" y2="0" gradientUnits="userSpaceOnUse" gradientTransform="matrix(366.476,-15.9622,-5.86464,-134.646,301.178,373.137)"><stop offset="0" style="stop-color:#000;stop-opacity:0.684286"/><stop offset="0.53" style="stop-color:#007dba;stop-opacity:0.684286"/><stop offset="1" style="stop-color:#00abff;stop-opacity:0.684286"/></linearGradient><linearGradient id="_Linear5" x1="0" y1="0" x2="1" y2="0" gradientUnits="userSpaceOnUse" gradientTransform="matrix(346.727,-14.5502,-3.64178,-86.7822,318.662,345.653)"><stop offset="0" style="stop-color:#000;stop-opacity:0.684286"/><stop offset="0.19" style="stop-color:#004669;stop-opacity:0.684286"/><stop offset="0.41" style="stop-color:#008cd1;stop-opacity:0.684286"/><stop offset="1" style="stop-color:#00abff;stop-opacity:0.684286"/></linearGradient><linearGradient id="_Linear6" x1="0" y1="0" x2="1" y2="0" gradientUnits="userSpaceOnUse" gradientTransform="matrix(485.75,0,0,143.115,162.473,189.777)"><stop offset="0" style="stop-color:#000;stop-opacity:0.684286"/><stop offset="0.19" style="stop-color:#004769;stop-opacity:0.684286"/><stop offset="0.41" style="stop-color:#008cd1;stop-opacity:0.684286"/><stop offset="1" style="stop-color:#00abff;stop-opacity:0.684286"/></linearGradient><linearGradient id="_Linear7" x1="0" y1="0" x2="1" y2="0" gradientUnits="userSpaceOnUse" gradientTransform="matrix(463.251,21.6675,-3.58688,76.6875,209.225,221.117)"><stop offset="0" style="stop-color:#000;stop-opacity:0.684286"/><stop offset="0.48" style="stop-color:#0082c3;stop-opacity:0.684286"/><stop offset="1" style="stop-color:#00abff;stop-opacity:0.684286"/></linearGradient><linearGradient id="_Linear8" x1="0" y1="0" x2="1" y2="0" gradientUnits="userSpaceOnUse" gradientTransform="matrix(368.5,0,0,163.898,296.223,391.151)"><stop offset="0" style="stop-color:#0f0a0a;stop-opacity:0.684286"/><stop offset="0.52" style="stop-color:#0480bd;stop-opacity:0.684286"/><stop offset="1" style="stop-color:#00abff;stop-opacity:0.684286"/></linearGradient><linearGradient id="_Linear9" x1="0" y1="0" x2="1" y2="0" gradientUnits="userSpaceOnUse" gradientTransform="matrix(397.143,0,0,53.9318,264.723,254.162)"><stop offset="0" style="stop-color:#0b0909;stop-opacity:0.684286"/><stop offset="0.53" style="stop-color:#037cbb;stop-opacity:0.684286"/><stop offset="1" style="stop-color:#00a8ff;stop-opacity:0.684286"/></linearGradient><linearGradient id="_Linear10" x1="0" y1="0" x2="1" y2="0" gradientUnits="userSpaceOnUse" gradientTransform="matrix(343.701,10.1792,1.57772,-53.2718,331.393,300.525)"><stop offset="0" style="stop-color:#0b0909;stop-opacity:0.684286"/><stop offset="0.53" style="stop-color:#037cbb;stop-opacity:0.684286"/><stop offset="1" style="stop-color:#00a8ff;stop-opacity:0.684286"/></linearGradient><linearGradient id="_Linear11" x1="0" y1="0" x2="1" y2="0" gradientUnits="userSpaceOnUse" gradientTransform="matrix(316,0,0,22.2627,343.598,274.721)"><stop offset="0" style="stop-color:#110909;stop-opacity:0.684286"/><stop offset="0.55" style="stop-color:#0576b8;stop-opacity:0.684286"/><stop offset="1" style="stop-color:#00a2ff;stop-opacity:0.684286"/></linearGradient></defs></svg>